<?xml version="1.0" encoding="UTF-8"?><svg id="Layer_2" xmlns="http://www.w3.org/2000/svg" xmlns:xlink="http://www.w3.org/1999/xlink" viewBox="0 0 189.22 30.78"><defs><style>.cls-1{fill:none;}.cls-2{clip-path:url(#clippath);}.cls-3{fill:#f58220;}.cls-4{fill:#fff;}</style><clipPath id="clippath"><rect class="cls-1" x="0" y="0" width="83.21" height="19.75"/></clipPath></defs><g id="Layer_1-2"><g><g class="cls-2"><path class="cls-4" d="M16.1,13.25v4.99c-1.02,.58-5.31,2.57-10.82,.77C2.14,17.99,.67,14.98,.35,13.64,.03,12.29-1.9,1.13,8.35,.13c2.62-.26,6.53,0,7.75,1.09V6.15c-.7-.45-3.78-2.11-7.62-1.15-3.84,.96-4.16,8-.83,9.41,3.33,1.41,8.07-.32,8.45-1.15h0Z"/></g><polygon class="cls-4" points="24.1 19.27 24.1 .39 18.73 .39 18.73 19.27 24.1 19.27 24.1 19.27"/><polygon class="cls-4" points="25.85 .39 25.85 4.93 30.97 4.93 30.97 19.34 36.35 19.34 36.35 5 41.28 5 41.28 .39 25.85 .39 25.85 .39"/><path class="cls-4" d="M58.05,1.28c-.64-.51-5.06-1.86-10.43-.83-4.84,.92-5.45,6.29-5.57,6.79-.32,1.28-1.47,10.76,5.31,11.97,7.47,1.34,12.48-.21,12.48-6.27v-4.8h-8.64v4.03h3.91c0,1.6-.32,2.94-1.92,3.14-1.6,.19-6.53,.83-6.34-4.54,.16-4.43,.53-6.78,6.85-6.08,2.3,.26,4.29,.9,4.29,.9l.06-4.29h0Z"/><path class="cls-4" d="M66.24,9.81c.03,3.64,1.33,5.06,4.59,5.03,3.26-.03,4.47-1.62,4.47-5.22s-1.24-5.16-4.59-5.16-4.5,1.52-4.47,5.36h0ZM70.78,0c6.89,0,9.44,2.92,9.44,9.69s-2.48,9.75-9.19,9.81c-6.71,.06-9.38-2.61-9.44-9.44-.06-7.21,2.3-10.06,9.19-10.06h0Z"/><path class="cls-4" d="M81.58,1.51c.24,0,.45-.02,.45-.3,0-.23-.21-.27-.41-.27h-.38v.58h.34Zm-.34,1.05h-.28V.7h.71c.44,0,.66,.16,.66,.53,0,.33-.21,.48-.48,.51l.53,.82h-.32l-.49-.81h-.32v.81h0Zm.34,.41c.73,0,1.31-.57,1.31-1.35s-.58-1.34-1.31-1.34-1.32,.58-1.32,1.34,.58,1.35,1.32,1.35h0Zm-1.64-1.35c0-.93,.75-1.61,1.64-1.61s1.63,.68,1.63,1.61-.75,1.62-1.63,1.62-1.64-.68-1.64-1.62h0Z"/><g><path class="cls-3" d="M88.93,.39h7.33l3.34,14.08,.06-.05L102.65,.39h4.71l-4.02,18.89h-7.25l-3.33-14.47h-.05l-3.08,14.47h-4.71L88.93,.39Z"/><path class="cls-3" d="M107.36,9.84C108.69,3.61,112.99,0,119.24,0s9.02,3.61,7.69,9.84c-1.33,6.23-5.63,9.84-11.88,9.84s-9.02-3.61-7.69-9.84Zm11.1-6.18c-3.56,0-4.99,3.3-5.62,6.25-.6,2.8-.56,6.1,2.99,6.1s4.99-3.3,5.59-6.1c.63-2.96,.6-6.25-2.96-6.25Z"/><path class="cls-3" d="M128.67,19.29l.8-18.89h5.21l-1.2,13.77h.05L139.52,.39h6.41l-.13,13.66h.05L150.48,.39h4.74l-7.27,18.89h-6.28l-.27-14h-.05l-6.43,14h-6.25Z"/></g><g><path class="cls-4" d="M.91,25.82h.5l2.68,4.27h.01v-4.27h.44v4.86h-.55l-2.62-4.2h-.01v4.2h-.44v-4.86Z"/><path class="cls-4" d="M5.5,30.67v-4.86h2.89v.4h-2.45v1.74h2.36v.4h-2.36v1.9h2.55v.4h-2.99Z"/><path class="cls-4" d="M10.95,30.67h-.62l-1.27-4.86h.46l1.13,4.42h.01l1.42-4.42h.53l1.48,4.42h.01l1.12-4.42h.42l-1.28,4.86h-.6l-1.43-4.41h-.01l-1.39,4.41Z"/><path class="cls-4" d="M17.56,30.78c-.77,0-1.43-.57-1.45-1.37h.47c.01,.75,.57,.96,1.22,.96,.55,0,1.17-.32,1.17-.94,0-.48-.35-.71-.76-.85-.79-.26-1.98-.51-1.98-1.56,0-.85,.78-1.31,1.55-1.31,.64,0,1.47,.22,1.58,1.16h-.47c-.01-.6-.56-.75-1.06-.75s-1.13,.26-1.13,.85c0,1.38,2.75,.75,2.75,2.43,0,1.06-.91,1.38-1.88,1.38Z"/><path class="cls-4" d="M22.42,30.67v-4.86h2.75v.4h-2.31v1.72h2.23v.4h-2.23v2.33h-.44Z"/><path class="cls-4" d="M27.94,30.78c-1.39,0-2.17-1.02-2.17-2.53s.77-2.53,2.17-2.53,2.17,1.02,2.17,2.53-.77,2.53-2.17,2.53Zm0-.4c1.21,0,1.7-1.06,1.7-2.13s-.48-2.13-1.7-2.13-1.7,1.06-1.7,2.13,.48,2.13,1.7,2.13Z"/><path class="cls-4" d="M31.48,30.67h-.44v-4.86h1.59c.42,0,.77,.03,1.14,.26,.34,.2,.5,.55,.5,1.02,0,.52-.37,.9-.94,1.04h0c.62,.11,.75,.53,.81,1.1,.09,.79,.06,1.15,.26,1.45h-.5c-.11-.32-.14-.67-.17-1.01-.1-1.11-.17-1.31-1.05-1.31h-1.2v2.31Zm.94-2.72c.62,0,1.39-.04,1.39-.87,0-.94-.88-.87-1.34-.87h-.98v1.74h.94Z"/><path class="cls-4" d="M37.39,30.67v-4.86h.44v4.45h2.44v.4h-2.88Z"/><path class="cls-4" d="M41.55,25.82v3.14c.03,.88,.54,1.41,1.34,1.41s1.31-.53,1.34-1.41v-3.14h.44v3.15c-.01,1.04-.6,1.81-1.78,1.81s-1.76-.77-1.78-1.81v-3.15h.44Z"/><path class="cls-4" d="M45.86,30.67v-4.86h1.74c.72,0,1.35,.44,1.35,1.22,0,.54-.39,.98-.9,1.1h0c.66,.12,1.1,.55,1.1,1.24,0,.64-.39,1.3-1.45,1.3h-1.85Zm1.49-2.72c.56,0,1.13-.22,1.13-.88,0-.71-.58-.85-1.15-.85h-1.04v1.74h1.06Zm-1.06,2.31h1.07c.83,.01,1.32-.21,1.32-.96,0-.83-.67-.96-1.58-.96h-.81v1.91Z"/><path class="cls-4" d="M50.81,30.67h-.44v-4.86h1.59c.42,0,.77,.03,1.14,.26,.34,.2,.5,.55,.5,1.02,0,.52-.37,.9-.94,1.04h0c.62,.11,.75,.53,.81,1.1,.09,.79,.06,1.15,.26,1.45h-.5c-.11-.32-.14-.67-.17-1.01-.1-1.11-.17-1.31-1.05-1.31h-1.2v2.31Zm.94-2.72c.62,0,1.39-.04,1.39-.87,0-.94-.88-.87-1.34-.87h-.98v1.74h.94Z"/><path class="cls-4" d="M54.89,30.67v-4.88h.44v4.88h-.44Z"/><path class="cls-4" d="M59.68,26.95c-.08-.59-.59-.83-1.14-.83-1.25,0-1.62,1.13-1.62,2.13s.38,2.13,1.62,2.13c.54,0,1.08-.27,1.2-.88h.47c-.14,.81-.89,1.28-1.67,1.28-1.47,0-2.09-1.18-2.09-2.53s.63-2.53,2.09-2.53c.79,0,1.55,.36,1.61,1.24h-.47Z"/><path class="cls-4" d="M60.65,30.67l1.92-4.86h.51l1.94,4.86h-.48l-.52-1.31h-2.42l-.51,1.31h-.45Zm3.22-1.72l-1.05-2.74-1.07,2.74h2.12Z"/><path class="cls-4" d="M65.7,25.82h.5l2.68,4.27h.01v-4.27h.44v4.86h-.55l-2.62-4.2h-.01v4.2h-.44v-4.86Z"/><path class="cls-4" d="M71.67,26.22h-1.57v-.4h3.55v.4h-1.54v4.45h-.44v-4.45Z"/><path class="cls-4" d="M76.28,30.67v-4.86h.7l1.82,4.23,1.86-4.23h.67v4.86h-.44v-4.49h-.01l-1.86,4.49h-.44l-1.86-4.47h-.01v4.47h-.44Z"/><path class="cls-4" d="M82.04,30.67l1.92-4.86h.51l1.94,4.86h-.48l-.52-1.31h-2.42l-.51,1.31h-.45Zm3.22-1.72l-1.05-2.74-1.07,2.74h2.12Z"/><path class="cls-4" d="M87.6,30.67h-.44v-4.86h1.59c.42,0,.77,.03,1.14,.26,.34,.2,.5,.55,.5,1.02,0,.52-.37,.9-.94,1.04h0c.62,.11,.75,.53,.81,1.1,.09,.79,.06,1.15,.26,1.45h-.5c-.11-.32-.14-.67-.17-1.01-.1-1.11-.17-1.31-1.05-1.31h-1.2v2.31Zm.94-2.72c.62,0,1.39-.04,1.39-.87,0-.94-.88-.87-1.34-.87h-.98v1.74h.94Z"/><path class="cls-4" d="M91.54,30.67v-4.86h.43v2.14l2.18-2.14h.55l-2.24,2.19,2.44,2.66h-.6l-2.33-2.54v2.54h-.44Z"/><path class="cls-4" d="M95.63,30.67v-4.86h2.89v.4h-2.45v1.74h2.36v.4h-2.36v1.9h2.55v.4h-2.99Z"/><path class="cls-4" d="M100.78,26.22h-1.57v-.4h3.55v.4h-1.54v4.45h-.44v-4.45Z"/><path class="cls-4" d="M103.62,30.67v-4.86h2.89v.4h-2.45v1.74h2.36v.4h-2.36v1.9h2.55v.4h-2.99Z"/><path class="cls-4" d="M107.97,30.67h-.44v-4.86h1.59c.42,0,.77,.03,1.14,.26,.34,.2,.5,.55,.5,1.02,0,.52-.37,.9-.94,1.04h0c.62,.11,.75,.53,.81,1.1,.09,.79,.06,1.15,.26,1.45h-.5c-.11-.32-.14-.67-.17-1.01-.1-1.11-.17-1.31-1.05-1.31h-1.2v2.31Zm.94-2.72c.62,0,1.39-.04,1.39-.87,0-.94-.88-.87-1.34-.87h-.98v1.74h.94Z"/><path class="cls-4" d="M113.04,30.78c-.77,0-1.43-.57-1.45-1.37h.47c.01,.75,.57,.96,1.22,.96,.55,0,1.17-.32,1.17-.94,0-.48-.35-.71-.76-.85-.79-.26-1.98-.51-1.98-1.56,0-.85,.78-1.31,1.55-1.31,.64,0,1.47,.22,1.58,1.16h-.47c-.01-.6-.56-.75-1.06-.75s-1.13,.26-1.13,.85c0,1.38,2.75,.75,2.75,2.43,0,1.06-.91,1.38-1.88,1.38Z"/></g><g><path class="cls-3" d="M155.75,19.27l2.15-10.12h.9l-1.99,9.37h3.35l-.16,.76h-4.25Z"/><path class="cls-3" d="M162.9,15.51c-.28,1.32-.68,3.2,1.38,3.2s2.46-1.88,2.74-3.2l1.35-6.37h.9l-1.49,7.03c-.55,2.61-2.07,3.3-3.66,3.3s-2.81-.69-2.26-3.3l1.49-7.03h.9l-1.35,6.37Z"/><path class="cls-3" d="M169.01,19.27l2.15-10.12h2.82c1.58,0,2.26,.65,1.88,2.43-.26,1.22-.63,2.06-1.98,2.41v.03c1.27,.28,1.43,1.16,1.16,2.44-.39,1.82-1.47,2.82-3.16,2.82h-2.86Zm1.06-.76h1.43c1.49,0,2.31-.5,2.62-1.99,.19-.9,.18-2.12-1.36-2.12h-1.82l-.87,4.11Zm2.76-4.87c1.29,0,1.88-.88,2.13-2.03,.36-1.68-.56-1.71-1.28-1.71h-1.78l-.79,3.74h1.73Z"/><path class="cls-3" d="M182.86,9.15l-.16,.76h-3.69l-.8,3.79h3.52l-.16,.76h-3.52l-.86,4.07h3.79l-.16,.76h-4.68l2.15-10.12h4.59Z"/><path class="cls-3" d="M188.19,11.71c.24-1.25,.09-2.01-1.29-2.01-1.09,0-1.86,.38-2.11,1.57-.32,1.5,.43,1.54,1.4,2.37,1.06,.9,2.28,1.16,1.86,3.13-.38,1.81-1.5,2.69-3.26,2.69-1.98,0-2.63-1.07-2.13-3.04h.93c-.24,1.12-.4,2.29,1.41,2.29,1.18,0,1.89-.63,2.13-1.79,.29-1.37-.54-1.77-1.8-2.66-1.71-1.21-1.66-1.81-1.46-2.82,.36-1.75,1.62-2.48,3.28-2.48,2.1,0,2.28,1.3,1.97,2.76h-.91Z"/></g></g></g></svg>