<?xml version="1.0" encoding="UTF-8"?><svg id="Layer_2" xmlns="http://www.w3.org/2000/svg" xmlns:xlink="http://www.w3.org/1999/xlink" viewBox="0 0 252.89 31.75"><defs><style>.cls-1,.cls-2,.cls-3{fill:none;}.cls-4{clip-path:url(#clippath);}.cls-5{fill:#e31f26;stroke-width:1.16px;}.cls-5,.cls-2,.cls-3{stroke:#000;stroke-miterlimit:10;}.cls-6{fill:#fff;}.cls-2{stroke-width:.58px;}.cls-2,.cls-3,.cls-7{opacity:.2;}.cls-3{stroke-width:.57px;}</style><clipPath id="clippath"><rect class="cls-1" y=".05" width="85.73" height="20.35"/></clipPath></defs><g id="Layer_1-2"><g><g class="cls-4"><path class="cls-6" d="M16.59,13.7v5.14c-1.06,.59-5.47,2.64-11.15,.79C2.21,18.59,.69,15.49,.36,14.1,.03,12.72-1.96,1.22,8.61,.18c2.7-.26,6.73,0,7.98,1.12V6.38c-.73-.46-3.89-2.18-7.85-1.19-3.96,.99-4.29,8.24-.86,9.69,3.43,1.45,8.31-.33,8.71-1.19h0Z"/></g><polygon class="cls-6" points="24.83 19.9 24.83 .45 19.29 .45 19.29 19.9 24.83 19.9 24.83 19.9"/><polygon class="cls-6" points="26.63 .45 26.63 5.13 31.91 5.13 31.91 19.97 37.45 19.97 37.45 5.2 42.52 5.2 42.52 .45 26.63 .45 26.63 .45"/><path class="cls-6" d="M59.8,1.37c-.66-.53-5.21-1.91-10.75-.86-4.99,.95-5.61,6.48-5.74,6.99-.33,1.32-1.52,11.08,5.47,12.33,7.69,1.38,12.86-.21,12.86-6.46v-4.95h-8.9v4.16h4.02c0,1.65-.33,3.03-1.98,3.23-1.65,.2-6.73,.86-6.53-4.68,.16-4.57,.54-6.99,7.06-6.27,2.37,.26,4.42,.92,4.42,.92l.07-4.42h0Z"/><path class="cls-6" d="M68.24,10.16c.03,3.75,1.37,5.21,4.73,5.18,3.36-.04,4.61-1.67,4.61-5.38s-1.28-5.31-4.73-5.31-4.64,1.56-4.61,5.52h0ZM72.92,.05c7.1,0,9.73,3.01,9.73,9.98s-2.56,10.05-9.47,10.11c-6.91,.06-9.66-2.69-9.73-9.73C63.38,2.99,65.81,.05,72.92,.05h0Z"/><path class="cls-6" d="M84.04,1.61c.25,0,.47-.02,.47-.31,0-.24-.22-.28-.42-.28h-.4v.59h.35Zm-.35,1.08h-.29V.77h.73c.45,0,.68,.17,.68,.55,0,.34-.21,.49-.5,.53l.55,.85h-.32l-.51-.83h-.33v.83h0Zm.35,.43c.75,0,1.35-.59,1.35-1.39s-.59-1.38-1.35-1.38-1.36,.59-1.36,1.38,.6,1.39,1.36,1.39h0Zm-1.69-1.39c0-.95,.77-1.66,1.69-1.66s1.68,.7,1.68,1.66-.78,1.67-1.68,1.67-1.69-.7-1.69-1.67h0Z"/><g><path class="cls-6" d="M.94,26.64h.51l2.76,4.41h.01v-4.41h.45v5.01h-.57l-2.71-4.33h-.01v4.33h-.45v-5.01Z"/><path class="cls-6" d="M5.67,31.65v-5.01h2.98v.42h-2.53v1.8h2.43v.42h-2.43v1.96h2.63v.42h-3.08Z"/><path class="cls-6" d="M11.28,31.65h-.64l-1.31-5.01h.48l1.17,4.56h.01l1.47-4.56h.55l1.53,4.56h.01l1.16-4.56h.44l-1.32,5.01h-.62l-1.48-4.55h-.01l-1.44,4.55Z"/><path class="cls-6" d="M18.1,31.75c-.8,0-1.47-.58-1.49-1.41h.49c.01,.77,.58,.99,1.26,.99,.56,0,1.21-.33,1.21-.96,0-.5-.36-.74-.78-.88-.81-.27-2.05-.53-2.05-1.61,0-.87,.81-1.35,1.6-1.35,.66,0,1.52,.23,1.63,1.19h-.49c-.01-.62-.58-.78-1.09-.78s-1.17,.26-1.17,.87c0,1.42,2.83,.78,2.83,2.51,0,1.09-.94,1.42-1.94,1.42Z"/><path class="cls-6" d="M23.1,31.65v-5.01h2.83v.42h-2.38v1.77h2.3v.42h-2.3v2.41h-.45Z"/><path class="cls-6" d="M28.78,31.75c-1.44,0-2.24-1.05-2.24-2.61s.8-2.61,2.24-2.61,2.24,1.05,2.24,2.61-.8,2.61-2.24,2.61Zm0-.42c1.25,0,1.75-1.1,1.75-2.19s-.5-2.19-1.75-2.19-1.75,1.1-1.75,2.19,.5,2.19,1.75,2.19Z"/><path class="cls-6" d="M32.44,31.65h-.45v-5.01h1.64c.44,0,.8,.03,1.18,.26,.35,.21,.51,.57,.51,1.05,0,.54-.38,.93-.97,1.08h0c.64,.12,.78,.55,.84,1.13,.09,.81,.06,1.19,.26,1.49h-.52c-.12-.33-.15-.69-.17-1.04-.1-1.15-.17-1.35-1.08-1.35h-1.24v2.39Zm.96-2.8c.64,0,1.43-.04,1.43-.9,0-.96-.9-.9-1.38-.9h-1.01v1.79h.96Z"/><path class="cls-6" d="M41.59,27.81c-.08-.61-.61-.86-1.18-.86-1.28,0-1.67,1.17-1.67,2.19s.39,2.19,1.67,2.19c.56,0,1.11-.28,1.24-.9h.49c-.15,.84-.92,1.32-1.72,1.32-1.52,0-2.16-1.22-2.16-2.61s.65-2.61,2.16-2.61c.82,0,1.6,.38,1.67,1.28h-.49Z"/><path class="cls-6" d="M43.2,31.65v-5.03h.45v5.03h-.45Z"/><path class="cls-6" d="M46.1,27.05h-1.62v-.42h3.67v.42h-1.59v4.6h-.45v-4.6Z"/><path class="cls-6" d="M52.41,29.1v2.35c-.6,.24-1.15,.31-1.8,.31-1.37,0-2.14-1.07-2.14-2.61,0-1.29,.69-2.61,2.14-2.61,.83,0,1.69,.45,1.76,1.34h-.51c-.09-.64-.65-.92-1.25-.92-1.2,0-1.65,1.15-1.65,2.19,0,1.28,.53,2.19,1.89,2.19,.38,0,.76-.1,1.11-.21v-1.62h-1.26v-.42h1.71Z"/><path class="cls-6" d="M55.74,31.75c-1.44,0-2.24-1.05-2.24-2.61s.8-2.61,2.24-2.61,2.24,1.05,2.24,2.61-.8,2.61-2.24,2.61Zm0-.42c1.25,0,1.75-1.1,1.75-2.19s-.5-2.19-1.75-2.19-1.75,1.1-1.75,2.19,.5,2.19,1.75,2.19Z"/><path class="cls-6" d="M62.26,31.75c-.8,0-1.47-.58-1.49-1.41h.49c.01,.77,.58,.99,1.26,.99,.56,0,1.21-.33,1.21-.96,0-.5-.36-.74-.78-.88-.81-.27-2.05-.53-2.05-1.61,0-.87,.81-1.35,1.6-1.35,.66,0,1.52,.23,1.63,1.19h-.49c-.01-.62-.58-.78-1.09-.78s-1.17,.26-1.17,.87c0,1.42,2.83,.78,2.83,2.51,0,1.09-.94,1.42-1.94,1.42Z"/><path class="cls-6" d="M66.31,27.05h-1.62v-.42h3.67v.42h-1.59v4.6h-.45v-4.6Z"/><path class="cls-6" d="M68.13,31.65l1.99-5.01h.53l2,5.01h-.49l-.53-1.35h-2.49l-.53,1.35h-.47Zm3.33-1.77l-1.08-2.83-1.1,2.83h2.19Z"/><path class="cls-6" d="M73.87,27.05h-1.62v-.42h3.67v.42h-1.59v4.6h-.45v-4.6Z"/><path class="cls-6" d="M77.03,31.65v-5.03h.45v5.03h-.45Z"/><path class="cls-6" d="M80.92,31.75c-1.44,0-2.24-1.05-2.24-2.61s.8-2.61,2.24-2.61,2.24,1.05,2.24,2.61-.8,2.61-2.24,2.61Zm0-.42c1.25,0,1.75-1.1,1.75-2.19s-.5-2.19-1.75-2.19-1.75,1.1-1.75,2.19,.5,2.19,1.75,2.19Z"/><path class="cls-6" d="M84.25,26.64h.51l2.76,4.41h.01v-4.41h.45v5.01h-.57l-2.71-4.33h-.01v4.33h-.45v-5.01Z"/><path class="cls-6" d="M93.25,31.75c-1.44,0-2.24-1.05-2.24-2.61s.8-2.61,2.24-2.61,2.24,1.05,2.24,2.61-.8,2.61-2.24,2.61Zm0-.42c1.25,0,1.75-1.1,1.75-2.19s-.5-2.19-1.75-2.19-1.75,1.1-1.75,2.19,.5,2.19,1.75,2.19Z"/><path class="cls-6" d="M97.96,31.65h-.64l-1.31-5.01h.48l1.17,4.56h.01l1.47-4.56h.55l1.53,4.56h.01l1.16-4.56h.44l-1.32,5.01h-.62l-1.48-4.55h-.01l-1.44,4.55Z"/><path class="cls-6" d="M103.52,26.64h.51l2.76,4.41h.01v-4.41h.45v5.01h-.57l-2.71-4.33h-.01v4.33h-.45v-5.01Z"/><path class="cls-6" d="M108.6,31.65v-5.01h2.98v.42h-2.53v1.8h2.43v.42h-2.43v1.96h2.63v.42h-3.08Z"/><path class="cls-6" d="M113.29,31.65h-.45v-5.01h1.64c.44,0,.8,.03,1.18,.26,.35,.21,.51,.57,.51,1.05,0,.54-.38,.93-.97,1.08h0c.64,.12,.78,.55,.84,1.13,.09,.81,.06,1.19,.26,1.49h-.52c-.12-.33-.15-.69-.17-1.04-.1-1.15-.17-1.35-1.08-1.35h-1.24v2.39Zm.96-2.8c.64,0,1.43-.04,1.43-.9,0-.96-.9-.9-1.38-.9h-1.01v1.79h.96Z"/><path class="cls-6" d="M118.65,31.75c-.8,0-1.47-.58-1.49-1.41h.49c.01,.77,.58,.99,1.26,.99,.56,0,1.21-.33,1.21-.96,0-.5-.36-.74-.78-.88-.81-.27-2.05-.53-2.05-1.61,0-.87,.81-1.35,1.6-1.35,.66,0,1.52,.23,1.63,1.19h-.49c-.01-.62-.58-.78-1.09-.78s-1.17,.26-1.17,.87c0,1.42,2.83,.78,2.83,2.51,0,1.09-.94,1.42-1.94,1.42Z"/></g><g><path class="cls-6" d="M181.39,12.25c0-1.46,.48-2.75,2.44-2.75,1.43,0,2.1,.72,2.1,1.89v1.04h-1.36v-.72c0-.67-.23-1.08-.84-1.08-.75,0-.9,.53-.9,1.79v5.12c0,1.23,.39,1.44,.85,1.44,.53,0,.88-.38,.88-1.24v-.72h1.36v1.16c0,1.1-.45,1.94-2.12,1.94-1.82,0-2.41-.97-2.41-2.59v-5.27Z"/><path class="cls-6" d="M188.03,12.25c0-1.46,.48-2.75,2.44-2.75,1.86,0,2.46,.97,2.46,2.59v5.27c0,1.46-.48,2.75-2.46,2.75-1.85,0-2.44-.97-2.44-2.59v-5.27Zm1.45,5.36c0,.9,.4,1.37,1,1.37s1.01-.48,1.01-1.37v-5.48c0-1.03-.35-1.5-1.01-1.5s-1,.48-1,1.5v5.48Z"/><path class="cls-6" d="M195.4,9.59h1.99l1.71,8.67h.03V9.59h1.36v10.43h-2.08l-1.71-8.9h-.03v8.9h-1.27V9.59Z"/><path class="cls-6" d="M203,9.59h1.99l1.71,8.67h.03V9.59h1.36v10.43h-2.08l-1.71-8.9h-.03v8.9h-1.27V9.59Z"/><path class="cls-6" d="M210.6,9.59h3.93v1.21h-2.49v3.27h2.34v1.21h-2.34v3.53h2.49v1.21h-3.93V9.59Z"/><path class="cls-6" d="M216.44,12.25c0-1.46,.48-2.75,2.44-2.75,1.43,0,2.1,.72,2.1,1.89v1.04h-1.36v-.72c0-.67-.23-1.08-.84-1.08-.75,0-.9,.53-.9,1.79v5.12c0,1.23,.39,1.44,.85,1.44,.53,0,.88-.38,.88-1.24v-.72h1.36v1.16c0,1.1-.45,1.94-2.12,1.94-1.82,0-2.41-.97-2.41-2.59v-5.27Z"/><path class="cls-6" d="M222.68,9.59h4.91v1.21h-1.73v9.22h-1.44V10.81h-1.73v-1.21Z"/><path class="cls-6" d="M229.62,9.59h1.45v10.43h-1.45V9.59Z"/><path class="cls-6" d="M233.49,12.25c0-1.46,.48-2.75,2.44-2.75,1.86,0,2.46,.97,2.46,2.59v5.27c0,1.46-.48,2.75-2.46,2.75-1.85,0-2.44-.97-2.44-2.59v-5.27Zm1.45,5.36c0,.9,.4,1.37,1,1.37s1.01-.48,1.01-1.37v-5.48c0-1.03-.35-1.5-1.01-1.5s-1,.48-1,1.5v5.48Z"/><path class="cls-6" d="M240.86,9.59h1.99l1.71,8.67h.03V9.59h1.36v10.43h-2.08l-1.71-8.9h-.03v8.9h-1.27V9.59Z"/><path class="cls-6" d="M248.3,17.01h1.45v.85c0,.69,.26,1.13,.84,1.13,.77,0,.95-.52,.95-1.2,0-.88-.04-1.17-1.55-2.66-.92-.92-1.69-1.76-1.69-3.18,0-1.71,.79-2.44,2.37-2.44,.78,0,1.34,.26,1.69,.58,.25,.23,.42,.59,.42,1.33v.98h-1.36v-.82c0-.59-.25-.94-.81-.94-.59,0-.87,.33-.87,1.14,0,.71,.14,1.14,1.47,2.53,1.42,1.47,1.68,1.98,1.68,3.24,0,1.63-.64,2.57-2.36,2.57-1.33,0-2.24-.56-2.24-1.86v-1.24Z"/></g><g><path class="cls-5" d="M94.75,19.76h-4.01V.58h7.41c2.74,0,4.49,1.75,4.49,5.02,0,2.44-.96,4.28-3.56,4.7v.05c.88,.11,3.48,.32,3.48,3.77,0,1.22,.08,4.83,.45,5.63h-3.93c-.53-1.17-.43-2.47-.43-3.72,0-2.28,.21-4.22-2.87-4.22h-1.04v7.94Zm0-10.89h1.78c1.59,0,2.05-1.59,2.05-2.82,0-1.83-.77-2.52-2.05-2.52h-1.78v5.34Z"/><path class="cls-5" d="M107.44,19.76V.58h10.47V3.53h-6.46v4.73h5.95v2.95h-5.95v5.61h6.67v2.95h-10.68Z"/><path class="cls-5" d="M135.07,.58V3.77h-4.46v15.99h-4.01V3.77h-4.46V.58h12.94Z"/><path class="cls-5" d="M136.53,19.76L141.84,.58h5.29l5.21,19.18h-4.22l-1.06-4.25h-5.47l-1.09,4.25h-3.96Zm7.73-15.49h-.05l-1.83,8.29h3.83l-1.94-8.29Z"/><path class="cls-5" d="M156.61,19.76V.58h4.01V19.76h-4.01Z"/><path class="cls-5" d="M167.21,19.76V.58h4.01v15.99h6v3.19h-10.02Z"/></g><g class="cls-7"><path class="cls-5" d="M95.37,20.38h-4.01V1.2h7.41c2.74,0,4.49,1.75,4.49,5.02,0,2.44-.96,4.28-3.56,4.7v.05c.88,.11,3.48,.32,3.48,3.77,0,1.22,.08,4.83,.45,5.63h-3.93c-.53-1.17-.43-2.47-.43-3.72,0-2.28,.21-4.22-2.87-4.22h-1.04v7.94Zm0-10.89h1.78c1.59,0,2.05-1.59,2.05-2.82,0-1.83-.77-2.52-2.05-2.52h-1.78v5.34Z"/><path class="cls-5" d="M108.07,20.38V1.2h10.47v2.95h-6.46v4.73h5.95v2.95h-5.95v5.61h6.67v2.95h-10.68Z"/><path class="cls-5" d="M135.69,1.2v3.19h-4.46v15.99h-4.01V4.39h-4.46V1.2h12.94Z"/><path class="cls-5" d="M137.15,20.38l5.31-19.18h5.29l5.21,19.18h-4.22l-1.06-4.25h-5.47l-1.09,4.25h-3.96Zm7.73-15.49h-.05l-1.83,8.29h3.83l-1.94-8.29Z"/><path class="cls-5" d="M157.23,20.38V1.2h4.01V20.38h-4.01Z"/><path class="cls-5" d="M167.83,20.38V1.2h4.01v15.99h6v3.19h-10.02Z"/></g><g><path class="cls-6" d="M94.75,19.76h-4.01V.58h7.41c2.74,0,4.49,1.75,4.49,5.02,0,2.44-.96,4.28-3.56,4.7v.05c.88,.11,3.48,.32,3.48,3.77,0,1.22,.08,4.83,.45,5.63h-3.93c-.53-1.17-.43-2.47-.43-3.72,0-2.28,.21-4.22-2.87-4.22h-1.04v7.94Zm0-10.89h1.78c1.59,0,2.05-1.59,2.05-2.82,0-1.83-.77-2.52-2.05-2.52h-1.78v5.34Z"/><path class="cls-6" d="M107.44,19.76V.58h10.47V3.53h-6.46v4.73h5.95v2.95h-5.95v5.61h6.67v2.95h-10.68Z"/><path class="cls-6" d="M135.07,.58V3.77h-4.46v15.99h-4.01V3.77h-4.46V.58h12.94Z"/><path class="cls-6" d="M136.53,19.76L141.84,.58h5.29l5.21,19.18h-4.22l-1.06-4.25h-5.47l-1.09,4.25h-3.96Zm7.73-15.49h-.05l-1.83,8.29h3.83l-1.94-8.29Z"/><path class="cls-6" d="M156.61,19.76V.58h4.01V19.76h-4.01Z"/><path class="cls-6" d="M167.21,19.76V.58h4.01v15.99h6v3.19h-10.02Z"/></g><path class="cls-3" d="M95.02,19.91h-3.99V.85h7.36c2.72,0,4.46,1.74,4.46,4.99,0,2.43-.95,4.25-3.54,4.67v.05c.87,.11,3.46,.32,3.46,3.75,0,1.21,.08,4.8,.45,5.6h-3.91c-.53-1.16-.42-2.45-.42-3.7,0-2.27,.21-4.2-2.85-4.2h-1.03v7.89Zm0-10.82h1.77c1.58,0,2.03-1.58,2.03-2.8,0-1.82-.77-2.51-2.03-2.51h-1.77v5.31Z"/><path class="cls-2" d="M107.74,20.03V.85h10.47V3.8h-6.45v4.73h5.95v2.95h-5.95v5.6h6.67v2.95h-10.68Z"/><path class="cls-2" d="M135.36,.86v3.19h-4.46v15.99h-4.01V4.05h-4.46V.86h12.94Z"/><path class="cls-2" d="M136.74,20.04L142.06,.86h5.29l5.21,19.18h-4.22l-1.06-4.25h-5.47l-1.09,4.25h-3.96Zm7.73-15.49h-.05l-1.83,8.29h3.82l-1.94-8.29Z"/><path class="cls-2" d="M156.9,20.01V.83h4.01V20.01h-4.01Z"/><path class="cls-2" d="M167.5,20.04V.86h4.01v15.99h6v3.19h-10.01Z"/></g></g></svg>