<?xml version="1.0" encoding="UTF-8"?><svg id="Layer_2" xmlns="http://www.w3.org/2000/svg" xmlns:xlink="http://www.w3.org/1999/xlink" viewBox="0 0 155.77 30.89"><defs><style>.cls-1{fill:none;}.cls-2{clip-path:url(#clippath);}.cls-3{fill:#f58220;}.cls-4{fill:#fff;}</style><clipPath id="clippath"><rect class="cls-1" x="0" y="0" width="83.51" height="19.82"/></clipPath></defs><g id="Layer_1-2"><g><g class="cls-2"><path class="cls-4" d="M16.16,13.3v5.01c-1.03,.58-5.33,2.58-10.86,.77C2.15,18.06,.67,15.04,.35,13.69,.03,12.34-1.91,1.14,8.38,.13c2.63-.26,6.55,0,7.77,1.09V6.17c-.71-.45-3.79-2.12-7.65-1.16-3.85,.96-4.18,8.03-.84,9.44,3.34,1.41,8.1-.32,8.48-1.16h0Z"/></g><polygon class="cls-4" points="24.19 19.34 24.19 .39 18.79 .39 18.79 19.34 24.19 19.34 24.19 19.34"/><polygon class="cls-4" points="25.94 .39 25.94 4.95 31.08 4.95 31.08 19.41 36.48 19.41 36.48 5.01 41.42 5.01 41.42 .39 25.94 .39 25.94 .39"/><path class="cls-4" d="M58.26,1.29c-.64-.51-5.08-1.86-10.47-.84-4.86,.93-5.47,6.31-5.59,6.81-.32,1.28-1.48,10.79,5.33,12.01,7.5,1.34,12.53-.21,12.53-6.3v-4.82h-8.67v4.05h3.92c0,1.61-.32,2.96-1.93,3.15-1.61,.19-6.55,.84-6.36-4.56,.16-4.45,.53-6.81,6.87-6.1,2.31,.26,4.3,.9,4.3,.9l.06-4.3h0Z"/><path class="cls-4" d="M66.48,9.85c.03,3.65,1.33,5.08,4.61,5.04,3.28-.03,4.49-1.63,4.49-5.24s-1.24-5.18-4.61-5.18-4.52,1.52-4.49,5.38h0ZM71.03,0c6.92,0,9.47,2.93,9.47,9.72s-2.49,9.79-9.23,9.85c-6.73,.06-9.41-2.62-9.47-9.47-.06-7.24,2.31-10.1,9.23-10.1h0Z"/><path class="cls-4" d="M81.87,1.52c.24,0,.45-.02,.45-.3,0-.23-.21-.27-.41-.27h-.39v.58h.34Zm-.34,1.05h-.28V.7h.71c.44,0,.66,.16,.66,.53,0,.33-.21,.48-.48,.51l.53,.82h-.32l-.49-.81h-.33v.81h0Zm.34,.42c.73,0,1.31-.57,1.31-1.36s-.58-1.34-1.31-1.34-1.32,.58-1.32,1.34,.58,1.36,1.32,1.36h0Zm-1.65-1.36c0-.93,.75-1.62,1.65-1.62s1.64,.69,1.64,1.62-.76,1.63-1.64,1.63-1.65-.69-1.65-1.63h0Z"/><g><path class="cls-3" d="M89.25,.4h7.35l3.35,14.13,.06-.05L103.01,.4h4.73l-4.03,18.96h-7.27l-3.35-14.52h-.05l-3.09,14.52h-4.73L89.25,.4Z"/><path class="cls-3" d="M107.74,9.88C109.07,3.63,113.39,0,119.66,0s9.05,3.62,7.72,9.87-5.65,9.87-11.92,9.87-9.05-3.62-7.72-9.87Zm11.14-6.2c-3.57,0-5.01,3.31-5.64,6.28-.6,2.81-.57,6.12,3.01,6.12s5.01-3.31,5.61-6.12c.63-2.97,.6-6.28-2.97-6.28Z"/><path class="cls-3" d="M129.13,19.36l.8-18.96h5.23l-1.2,13.81h.05L140.01,.4h6.43l-.13,13.71h.05L151.01,.4h4.75l-7.29,18.96h-6.3l-.27-14.05h-.05l-6.45,14.05h-6.28Z"/></g><g><path class="cls-4" d="M.91,25.9h.5l2.69,4.29h.01v-4.29h.44v4.88h-.55l-2.64-4.22h-.01v4.22h-.44v-4.88Z"/><path class="cls-4" d="M5.52,30.78v-4.88h2.9v.41h-2.46v1.75h2.37v.41h-2.37v1.91h2.56v.41h-3Z"/><path class="cls-4" d="M10.99,30.78h-.62l-1.27-4.88h.47l1.14,4.44h.01l1.43-4.44h.53l1.49,4.44h.01l1.13-4.44h.43l-1.28,4.88h-.6l-1.44-4.43h-.01l-1.4,4.43Z"/><path class="cls-4" d="M17.63,30.89c-.78,0-1.43-.57-1.45-1.37h.47c.01,.75,.57,.97,1.22,.97,.55,0,1.18-.32,1.18-.94,0-.49-.35-.72-.76-.85-.79-.26-1.99-.51-1.99-1.57,0-.85,.78-1.32,1.55-1.32,.64,0,1.48,.22,1.59,1.16h-.47c-.01-.6-.56-.76-1.06-.76s-1.14,.26-1.14,.85c0,1.39,2.76,.76,2.76,2.44,0,1.06-.91,1.39-1.89,1.39Z"/><path class="cls-4" d="M22.5,30.78v-4.88h2.76v.41h-2.32v1.72h2.24v.41h-2.24v2.35h-.44Z"/><path class="cls-4" d="M28.04,30.89c-1.4,0-2.18-1.02-2.18-2.54s.78-2.54,2.18-2.54,2.18,1.02,2.18,2.54-.78,2.54-2.18,2.54Zm0-.41c1.22,0,1.7-1.07,1.7-2.14s-.49-2.14-1.7-2.14-1.7,1.07-1.7,2.14,.49,2.14,1.7,2.14Z"/><path class="cls-4" d="M31.6,30.78h-.44v-4.88h1.6c.43,0,.78,.03,1.15,.26,.34,.2,.5,.55,.5,1.02,0,.53-.37,.91-.94,1.05h0c.62,.11,.76,.53,.82,1.1,.09,.79,.06,1.16,.26,1.45h-.51c-.11-.32-.14-.67-.17-1.01-.1-1.12-.17-1.31-1.05-1.31h-1.21v2.33Zm.94-2.73c.62,0,1.39-.04,1.39-.87,0-.94-.88-.87-1.35-.87h-.99v1.74h.94Z"/><path class="cls-4" d="M37.49,30.78v-4.88h2.76v.41h-2.32v1.72h2.24v.41h-2.24v2.35h-.44Z"/><path class="cls-4" d="M41.5,25.9v3.16c.03,.89,.54,1.42,1.35,1.42s1.31-.53,1.34-1.42v-3.16h.44v3.16c-.01,1.05-.6,1.82-1.78,1.82s-1.77-.77-1.78-1.82v-3.16h.44Z"/><path class="cls-4" d="M45.83,30.78v-4.88h2.9v.41h-2.46v1.75h2.37v.41h-2.37v1.91h2.56v.41h-3Z"/><path class="cls-4" d="M49.81,30.78v-4.88h.44v4.47h2.45v.41h-2.89Z"/><path class="cls-4" d="M55.43,30.78v-4.88h.7l1.83,4.25,1.87-4.25h.67v4.88h-.44v-4.51h-.01l-1.87,4.51h-.44l-1.87-4.49h-.01v4.49h-.44Z"/><path class="cls-4" d="M61.21,30.78l1.93-4.88h.51l1.95,4.88h-.48l-.52-1.32h-2.43l-.51,1.32h-.45Zm3.24-1.72l-1.05-2.75-1.07,2.75h2.13Z"/><path class="cls-4" d="M66.79,30.78h-.44v-4.88h1.6c.43,0,.78,.03,1.15,.26,.34,.2,.5,.55,.5,1.02,0,.53-.37,.91-.94,1.05h0c.62,.11,.76,.53,.82,1.1,.09,.79,.06,1.16,.26,1.45h-.51c-.11-.32-.14-.67-.17-1.01-.1-1.12-.17-1.31-1.05-1.31h-1.21v2.33Zm.94-2.73c.62,0,1.39-.04,1.39-.87,0-.94-.88-.87-1.35-.87h-.99v1.74h.94Z"/><path class="cls-4" d="M70.74,30.78v-4.88h.43v2.15l2.19-2.15h.55l-2.25,2.2,2.45,2.68h-.6l-2.34-2.55v2.55h-.44Z"/><path class="cls-4" d="M74.84,30.78v-4.88h2.9v.41h-2.46v1.75h2.37v.41h-2.37v1.91h2.56v.41h-3Z"/><path class="cls-4" d="M80.02,26.31h-1.57v-.41h3.57v.41h-1.55v4.48h-.44v-4.48Z"/><path class="cls-4" d="M82.86,30.78v-4.88h2.9v.41h-2.46v1.75h2.37v.41h-2.37v1.91h2.56v.41h-3Z"/><path class="cls-4" d="M87.23,30.78h-.44v-4.88h1.6c.43,0,.78,.03,1.15,.26,.34,.2,.5,.55,.5,1.02,0,.53-.37,.91-.94,1.05h0c.62,.11,.76,.53,.82,1.1,.09,.79,.06,1.16,.26,1.45h-.51c-.12-.32-.14-.67-.17-1.01-.1-1.12-.17-1.31-1.05-1.31h-1.21v2.33Zm.94-2.73c.62,0,1.39-.04,1.39-.87,0-.94-.88-.87-1.35-.87h-.99v1.74h.94Z"/><path class="cls-4" d="M92.31,30.89c-.78,0-1.43-.57-1.45-1.37h.47c.01,.75,.57,.97,1.22,.97,.55,0,1.18-.32,1.18-.94,0-.49-.35-.72-.76-.85-.79-.26-1.99-.51-1.99-1.57,0-.85,.78-1.32,1.55-1.32,.64,0,1.48,.22,1.59,1.16h-.47c-.01-.6-.56-.76-1.06-.76s-1.14,.26-1.14,.85c0,1.39,2.76,.76,2.76,2.44,0,1.06-.91,1.39-1.89,1.39Z"/></g></g></g></svg>